# xmcd CD database file
# Copyright (C) 1993-1998 Ti Kan
#
# Track frame offsets:
#	150
#	11875
#	20730
#	30335
#	41965
#	53740
#	65320
#	77965
#	88435
#	104672
#	122645
#	132155
#	150832
#	163287
#	173042
#	184747
#	199315
#	218809
#	230840
#	246120
#
# Disc length: 3468 seconds
#
# Revision: 1
# Processed by: cddbd v1.4b41PL1 Copyright (c) Steve Scherf et al.
# Submitted via: CDValet v3.31 - Copyright (c) 1997 Greg Leichner
#
DISCID=1e0d8a14
DTITLE=Rebel Records - 35th Anniversary Sampler
DYEAR=1900
DGENRE=
TTITLE0=Little Birdie - Red Allen
TTITLE1=I Could Change My Mind - Charlie Tomlinson
TTITLE2=Earl's Breakdown - Reno and Adcock
TTITLE3=Fox On The Run - Emerson and Waldron
TTITLE4=Ice Covered Birches - Cliff Waldron
TTITLE5=Don't Cheat In Your Hometown - Whitley and Skaggs
TTITLE6=Cold Wind - Roy McMillian
TTITLE7=Uncle Bill's Still - A. L. Wood
TTITLE8=Wait A Minute - Seldom Scene
TTITLE9=Dark As A Dungeon - Tony Rice
TTITLE10=Travelling The Highway Home - Ralph Stanely
TTITLE11=Pastures Of Plenty - Dale Evans
TTITLE12=Lost River - McPeak Brothers
TTITLE13=Harvest River - Lost and Found
TTITLE14=In My Robe of White - Forbes Family
TTITLE15=Don't Neglect The Rose - Larry Sparks
TTITLE16=Going Home - Rhonda Vincent
TTITLE17=Jack Rabbit Trail - Butch Baldassari
TTITLE18=Grandpa's Mandolin - IIIrd Tyme Out
TTITLE19=Lonesome Pine - Blue Highway
EXTD=
EXTT0=
EXTT1=
EXTT2=
EXTT3=
EXTT4=
EXTT5=
EXTT6=
EXTT7=
EXTT8=
EXTT9=
EXTT10=
EXTT11=
EXTT12=
EXTT13=
EXTT14=
EXTT15=
EXTT16=
EXTT17=
EXTT18=
EXTT19=
PLAYORDER=
